<?xml version="1.0" standalone="no"?>
<!DOCTYPE svg PUBLIC "-//W3C//DTD SVG 20010904//EN"
 "http://www.w3.org/TR/2001/REC-SVG-20010904/DTD/svg10.dtd">
<svg version="1.0" xmlns="http://www.w3.org/2000/svg"
 width="866.000000pt" height="450.000000pt" viewBox="0 0 866.000000 450.000000"
 preserveAspectRatio="xMidYMid meet">
<metadata>
Created by potrace 1.16, written by Peter Selinger 2001-2019
</metadata>
<g transform="translate(0.000000,650.000000) scale(0.100000,-0.100000)"
fill="#FFFFFF" stroke="none">
<path d="M4010 6118 c-382 -157 -543 -223 -895 -366 -148 -61 -362 -149 -475
-195 -113 -46 -330 -135 -482 -197 -153 -62 -276 -116 -274 -119 3 -3 205 -89
450 -191 l446 -185 0 -322 c0 -284 2 -328 18 -381 22 -67 70 -142 112 -173 28
-21 28 -24 23 -88 -7 -83 11 -277 37 -398 65 -309 240 -613 455 -793 116 -97
225 -171 313 -212 312 -147 860 -142 1160 11 178 91 397 284 510 449 172 251
258 522 269 847 l5 160 44 45 c24 25 56 72 71 105 l28 60 5 345 5 345 270 112
c306 126 336 133 386 84 l29 -29 0 -487 c0 -521 1 -534 51 -569 13 -9 43 -16
67 -16 35 0 49 6 73 29 l29 30 -2 613 -3 613 -1195 497 c-657 274 -1199 499
-1205 501 -5 2 -152 -54 -325 -125z m-608 -1539 c145 -55 387 -149 538 -207
l275 -106 110 -1 110 0 220 87 c202 79 307 121 698 274 76 30 140 54 143 54 2
0 4 -83 4 -185 0 -217 11 -194 -135 -286 -211 -132 -246 -152 -348 -195 -585
-247 -1184 -188 -1722 170 -71 48 -138 96 -147 108 -16 18 -18 44 -18 204 0
101 2 184 4 184 3 0 123 -45 268 -101z m-31 -877 c389 -169 832 -252 1129
-213 280 38 533 111 803 234 l77 36 0 -29 c0 -88 -56 -273 -125 -415 -201
-410 -576 -643 -999 -622 -146 7 -256 36 -391 102 -316 154 -539 460 -619 847
-19 94 -20 122 -3 115 6 -3 64 -28 128 -55z"/>
<path d="M3135 2378 c-72 -27 -428 -291 -650 -483 -556 -480 -813 -882 -792
-1235 11 -177 68 -306 166 -375 l43 -30 2401 -3 c1729 -2 2413 0 2440 8 44 13
109 68 143 121 70 111 95 332 56 488 -39 153 -146 346 -294 530 -91 112 -404
421 -553 545 -241 200 -533 414 -594 434 -78 27 -167 5 -226 -56 -18 -19 -105
-187 -224 -434 -369 -764 -422 -871 -426 -866 -12 11 -95 304 -95 332 0 21 29
88 80 188 53 102 80 167 80 189 1 31 -14 48 -157 186 -169 164 -195 180 -253
152 -16 -8 -94 -77 -173 -155 -108 -105 -146 -149 -152 -173 -6 -28 5 -55 81
-205 l88 -172 -49 -145 c-65 -194 -75 -217 -85 -199 -6 12 -380 809 -560 1195
-57 122 -109 164 -209 171 -31 2 -69 -1 -86 -8z"/>
</g>
</svg>
